<svg xmlns="http://www.w3.org/2000/svg" viewBox="0 0 512 512" role="img" aria-label="condor.ai"><path d="M512 256L511.88 332.66L511.51 357.1L510.89 374.81L510.02 389.15L508.9 401.37L507.53 412.09L505.91 421.67L504.02 430.33L501.87 438.24L499.45 445.49L496.76 452.18L493.78 458.37L490.52 464.09L486.95 469.39L483.07 474.31L478.86 478.86L474.31 483.07L469.39 486.95L464.09 490.52L458.37 493.78L452.18 496.76L445.49 499.45L438.24 501.87L430.33 504.02L421.67 505.91L412.09 507.53L401.37 508.9L389.15 510.02L374.81 510.89L357.1 511.51L332.66 511.88L256 512L179.34 511.88L154.9 511.51L137.19 510.89L122.85 510.02L110.63 508.9L99.91 507.53L90.33 505.91L81.67 504.02L73.76 501.87L66.51 499.45L59.82 496.76L53.63 493.78L47.91 490.52L42.61 486.95L37.69 483.07L33.14 478.86L28.93 474.31L25.05 469.39L21.48 464.09L18.22 458.37L15.24 452.18L12.55 445.49L10.13 438.24L7.98 430.33L6.09 421.67L4.47 412.09L3.1 401.37L1.98 389.15L1.11 374.81L0.49 357.1L0.12 332.66L0 256L0.12 179.34L0.49 154.9L1.11 137.19L1.98 122.85L3.1 110.63L4.47 99.91L6.09 90.33L7.98 81.67L10.13 73.76L12.55 66.51L15.24 59.82L18.22 53.63L21.48 47.91L25.05 42.61L28.93 37.69L33.14 33.14L37.69 28.93L42.61 25.05L47.91 21.48L53.63 18.22L59.82 15.24L66.51 12.55L73.76 10.13L81.67 7.98L90.33 6.09L99.91 4.47L110.63 3.1L122.85 1.98L137.19 1.11L154.9 0.49L179.34 0.12L256 0L332.66 0.12L357.1 0.49L374.81 1.11L389.15 1.98L401.37 3.1L412.09 4.47L421.67 6.09L430.33 7.98L438.24 10.13L445.49 12.55L452.18 15.24L458.37 18.22L464.09 21.48L469.39 25.05L474.31 28.93L478.86 33.14L483.07 37.69L486.95 42.61L490.52 47.91L493.78 53.63L496.76 59.82L499.45 66.51L501.87 73.76L504.02 81.67L505.91 90.33L507.53 99.91L508.9 110.63L510.02 122.85L510.89 137.19L511.51 154.9L511.88 179.34Z" fill="#FFFFFF"/><path d="M512 256L511.88 332.66L511.51 357.1L510.89 374.81L510.02 389.15L508.9 401.37L507.53 412.09L505.91 421.67L504.02 430.33L501.87 438.24L499.45 445.49L496.76 452.18L493.78 458.37L490.52 464.09L486.95 469.39L483.07 474.31L478.86 478.86L474.31 483.07L469.39 486.95L464.09 490.52L458.37 493.78L452.18 496.76L445.49 499.45L438.24 501.87L430.33 504.02L421.67 505.91L412.09 507.53L401.37 508.9L389.15 510.02L374.81 510.89L357.1 511.51L332.66 511.88L256 512L179.34 511.88L154.9 511.51L137.19 510.89L122.85 510.02L110.63 508.9L99.91 507.53L90.33 505.91L81.67 504.02L73.76 501.87L66.51 499.45L59.82 496.76L53.63 493.78L47.91 490.52L42.61 486.95L37.69 483.07L33.14 478.86L28.93 474.31L25.05 469.39L21.48 464.09L18.22 458.37L15.24 452.18L12.55 445.49L10.13 438.24L7.98 430.33L6.09 421.67L4.47 412.09L3.1 401.37L1.98 389.15L1.11 374.81L0.49 357.1L0.12 332.66L0 256L0.12 179.34L0.49 154.9L1.11 137.19L1.98 122.85L3.1 110.63L4.47 99.91L6.09 90.33L7.98 81.67L10.13 73.76L12.55 66.51L15.24 59.82L18.22 53.63L21.48 47.91L25.05 42.61L28.93 37.69L33.14 33.14L37.69 28.93L42.61 25.05L47.91 21.48L53.63 18.22L59.82 15.24L66.51 12.55L73.76 10.13L81.67 7.98L90.33 6.09L99.91 4.47L110.63 3.1L122.85 1.98L137.19 1.11L154.9 0.49L179.34 0.12L256 0L332.66 0.12L357.1 0.49L374.81 1.11L389.15 1.98L401.37 3.1L412.09 4.47L421.67 6.09L430.33 7.98L438.24 10.13L445.49 12.55L452.18 15.24L458.37 18.22L464.09 21.48L469.39 25.05L474.31 28.93L478.86 33.14L483.07 37.69L486.95 42.61L490.52 47.91L493.78 53.63L496.76 59.82L499.45 66.51L501.87 73.76L504.02 81.67L505.91 90.33L507.53 99.91L508.9 110.63L510.02 122.85L510.89 137.19L511.51 154.9L511.88 179.34Z" fill="none" stroke="#151517" stroke-opacity=".08" stroke-width="2"/><g fill="#014CFD"><path fill-rule="evenodd" transform="translate(78.33 107.77) scale(1.22)" d="M8.71 0.24L156.14 92.39A6 6 0 0 1 157.74 93.75C166 104 174 122 174 142C174 170 162 198 146.08 220.74A0.8 0.8 0 0 1 145.9 220.93L114.06 247.02A3.43 3.43 0 0 1 108.8 243.13L119.44 222.41A1.24 1.24 0 0 0 117.52 221.01C103 233 93 246 78 247L38.8 251.15A6.13 6.13 0 0 1 35.06 240.17L119.38 181.35A1.6 1.6 0 0 0 119.24 178.72L37.52 133.04A3.6 3.6 0 0 1 39.87 126.41L117.54 140.31A0.42 0.42 0 0 0 117.75 139.51L40.02 109.13A9 9 0 0 1 36.34 106.4L10.19 79.27A5.21 5.21 0 0 1 15.95 71.09L117.49 110.21A0.41 0.41 0 0 0 117.85 109.47L23.95 49.7A9 9 0 0 1 20.62 45.81L-0.62 8.58A6.57 6.57 0 0 1 8.71 0.24ZM149.64 217.56C165.67 198 177.67 170 177.67 142C177.67 135 176.67 129 174.67 124L195.69 117.07A2 2 0 0 1 196.32 116.97L241 117C247 117 251 118 254 120.5C256.5 122.5 257.5 124.5 259 126C268 130 273.5 137 274.55 146.82A1.4 1.4 0 0 1 272.71 148.21L262.35 144.07A1.5 1.5 0 0 0 261.65 144.01L249.57 145.84A2.5 2.5 0 0 0 248.48 146.29L150.29 218.23A0.47 0.47 0 0 1 149.64 217.56Z"/></g></svg>
