<svg xmlns="http://www.w3.org/2000/svg" viewBox="0 0 512 512" role="img" aria-label="condor track"><defs><linearGradient id="p-track-baldosa" gradientUnits="userSpaceOnUse" x1="0" y1="0" x2="0" y2="512"><stop offset="0" stop-color="#3FE0B5"/><stop offset="1" stop-color="#0A9C79"/></linearGradient><linearGradient id="p-track-l1" gradientUnits="userSpaceOnUse" x1="40" y1="160" x2="512" y2="260"><stop offset="0" stop-color="#057A5F"/><stop offset="1" stop-color="#034D3D"/></linearGradient><linearGradient id="p-track-l2" gradientUnits="userSpaceOnUse" x1="500" y1="300" x2="90" y2="520"><stop offset="0" stop-color="#2E7BFF"/><stop offset="1" stop-color="#03473A"/></linearGradient><radialGradient id="p-track-brillo" cx="0.45" cy="0.49" r="0.36"><stop offset="0" stop-color="#fff" stop-opacity="1"/><stop offset=".18" stop-color="#D6FFF3" stop-opacity=".85"/><stop offset=".55" stop-color="#D6FFF3" stop-opacity=".22"/><stop offset="1" stop-color="#D6FFF3" stop-opacity="0"/></radialGradient><linearGradient id="p-track-filo" x1="0" y1="0" x2="0" y2="1"><stop offset="0" stop-color="#fff" stop-opacity=".55"/><stop offset=".08" stop-color="#fff" stop-opacity="0"/></linearGradient><linearGradient id="p-track-velo" x1="0" y1="0" x2="0" y2="1"><stop offset="0" stop-color="#fff" stop-opacity=".22"/><stop offset=".4" stop-color="#fff" stop-opacity="0"/></linearGradient><clipPath id="p-track-clip"><path d="M512 256L511.88 332.66L511.51 357.1L510.89 374.81L510.02 389.15L508.9 401.37L507.53 412.09L505.91 421.67L504.02 430.33L501.87 438.24L499.45 445.49L496.76 452.18L493.78 458.37L490.52 464.09L486.95 469.39L483.07 474.31L478.86 478.86L474.31 483.07L469.39 486.95L464.09 490.52L458.37 493.78L452.18 496.76L445.49 499.45L438.24 501.87L430.33 504.02L421.67 505.91L412.09 507.53L401.37 508.9L389.15 510.02L374.81 510.89L357.1 511.51L332.66 511.88L256 512L179.34 511.88L154.9 511.51L137.19 510.89L122.85 510.02L110.63 508.9L99.91 507.53L90.33 505.91L81.67 504.02L73.76 501.87L66.51 499.45L59.82 496.76L53.63 493.78L47.91 490.52L42.61 486.95L37.69 483.07L33.14 478.86L28.93 474.31L25.05 469.39L21.48 464.09L18.22 458.37L15.24 452.18L12.55 445.49L10.13 438.24L7.98 430.33L6.09 421.67L4.47 412.09L3.1 401.37L1.98 389.15L1.11 374.81L0.49 357.1L0.12 332.66L0 256L0.12 179.34L0.49 154.9L1.11 137.19L1.98 122.85L3.1 110.63L4.47 99.91L6.09 90.33L7.98 81.67L10.13 73.76L12.55 66.51L15.24 59.82L18.22 53.63L21.48 47.91L25.05 42.61L28.93 37.69L33.14 33.14L37.69 28.93L42.61 25.05L47.91 21.48L53.63 18.22L59.82 15.24L66.51 12.55L73.76 10.13L81.67 7.98L90.33 6.09L99.91 4.47L110.63 3.1L122.85 1.98L137.19 1.11L154.9 0.49L179.34 0.12L256 0L332.66 0.12L357.1 0.49L374.81 1.11L389.15 1.98L401.37 3.1L412.09 4.47L421.67 6.09L430.33 7.98L438.24 10.13L445.49 12.55L452.18 15.24L458.37 18.22L464.09 21.48L469.39 25.05L474.31 28.93L478.86 33.14L483.07 37.69L486.95 42.61L490.52 47.91L493.78 53.63L496.76 59.82L499.45 66.51L501.87 73.76L504.02 81.67L505.91 90.33L507.53 99.91L508.9 110.63L510.02 122.85L510.89 137.19L511.51 154.9L511.88 179.34Z"/></clipPath><filter id="p-track-sombra" x="-30%" y="-30%" width="160%" height="160%"><feDropShadow dx="0" dy="12" stdDeviation="14" flood-color="#000" flood-opacity=".32"/></filter></defs><g clip-path="url(#p-track-clip)"><rect width="512" height="512" fill="url(#p-track-baldosa)"/><g class="lam lam1" transform="rotate(4 256 256)"><rect x="34" y="104" width="620" height="700" rx="86" fill="url(#p-track-l1)"/><rect x="34" y="104" width="620" height="700" rx="86" fill="url(#p-track-filo)"/></g><g class="lam lam2" transform="rotate(-7 256 256)"><rect x="34" y="292" width="620" height="700" rx="86" fill="url(#p-track-l2)"/><rect x="34" y="292" width="620" height="700" rx="86" fill="url(#p-track-filo)"/></g><rect class="brillo" width="512" height="512" fill="url(#p-track-brillo)"/><rect width="512" height="512" fill="url(#p-track-velo)"/></g><path d="M512 256L511.88 332.66L511.51 357.1L510.89 374.81L510.02 389.15L508.9 401.37L507.53 412.09L505.91 421.67L504.02 430.33L501.87 438.24L499.45 445.49L496.76 452.18L493.78 458.37L490.52 464.09L486.95 469.39L483.07 474.31L478.86 478.86L474.31 483.07L469.39 486.95L464.09 490.52L458.37 493.78L452.18 496.76L445.49 499.45L438.24 501.87L430.33 504.02L421.67 505.91L412.09 507.53L401.37 508.9L389.15 510.02L374.81 510.89L357.1 511.51L332.66 511.88L256 512L179.34 511.88L154.9 511.51L137.19 510.89L122.85 510.02L110.63 508.9L99.91 507.53L90.33 505.91L81.67 504.02L73.76 501.87L66.51 499.45L59.82 496.76L53.63 493.78L47.91 490.52L42.61 486.95L37.69 483.07L33.14 478.86L28.93 474.31L25.05 469.39L21.48 464.09L18.22 458.37L15.24 452.18L12.55 445.49L10.13 438.24L7.98 430.33L6.09 421.67L4.47 412.09L3.1 401.37L1.98 389.15L1.11 374.81L0.49 357.1L0.12 332.66L0 256L0.12 179.34L0.49 154.9L1.11 137.19L1.98 122.85L3.1 110.63L4.47 99.91L6.09 90.33L7.98 81.67L10.13 73.76L12.55 66.51L15.24 59.82L18.22 53.63L21.48 47.91L25.05 42.61L28.93 37.69L33.14 33.14L37.69 28.93L42.61 25.05L47.91 21.48L53.63 18.22L59.82 15.24L66.51 12.55L73.76 10.13L81.67 7.98L90.33 6.09L99.91 4.47L110.63 3.1L122.85 1.98L137.19 1.11L154.9 0.49L179.34 0.12L256 0L332.66 0.12L357.1 0.49L374.81 1.11L389.15 1.98L401.37 3.1L412.09 4.47L421.67 6.09L430.33 7.98L438.24 10.13L445.49 12.55L452.18 15.24L458.37 18.22L464.09 21.48L469.39 25.05L474.31 28.93L478.86 33.14L483.07 37.69L486.95 42.61L490.52 47.91L493.78 53.63L496.76 59.82L499.45 66.51L501.87 73.76L504.02 81.67L505.91 90.33L507.53 99.91L508.9 110.63L510.02 122.85L510.89 137.19L511.51 154.9L511.88 179.34Z" fill="none" stroke="#fff" stroke-opacity=".28" stroke-width="3"/><g class="picto" filter="url(#p-track-sombra)" transform="translate(256 262) scale(0.74) translate(-256 -278)"><g opacity=".85"><path d="M256 146a58 58 0 1 1 0 116a58 58 0 1 1 0-116Z" fill="#034D3D" stroke="#034D3D" stroke-width="9" stroke-linejoin="round"/><path d="M150 398C150 330 196 290 256 290S362 330 362 398Q362 412 348 412H164Q150 412 150 398Z" fill="#034D3D" stroke="#034D3D" stroke-width="9" stroke-linejoin="round"/></g><path d="M256 146a58 58 0 1 1 0 116a58 58 0 1 1 0-116Z" fill="#fff" stroke="#fff" stroke-width="0" stroke-linejoin="round"/><path d="M150 398C150 330 196 290 256 290S362 330 362 398Q362 412 348 412H164Q150 412 150 398Z" fill="#fff" stroke="#fff" stroke-width="0" stroke-linejoin="round"/></g></svg>
